<svg xmlns="http://www.w3.org/2000/svg" width="841.89" height="595.281"><path fill="#D9E0F4" d="M193.979 530.275l46.506-91.152-92.432-68.992c13.899-20.418 77.937-94.813 272.891-94.813 195.861 0 259.215 74.335 272.936 94.784l-92.477 69.021 46.506 91.152-226.965 42.549-226.965-42.549z"/><path fill="#6161C6" d="M420.945 282.758c176.293 0 242.963 61.388 262.52 85.825L601.97 429.39l-10.061 7.516 5.699 11.176 39.141 76.703-215.805 40.479-215.819-40.465 39.14-76.701 5.7-11.176-10.06-7.516-81.479-60.809c19.644-24.541 86.361-85.839 262.519-85.839m0-14.882c-233.275 0-282.758 104.174-282.758 104.174l92.819 69.275-48.173 94.426 238.112 44.646 238.111-44.646-48.172-94.426 92.818-69.275c.001 0-49.482-104.174-282.757-104.174z"/><path fill="#6161C6" d="M420.945 565.517S301.889 519.099 301.889 446.46V307.671h238.113V446.46c-.001 73.383-119.057 119.057-119.057 119.057z"/><path fill="#D9E0F4" d="M545.955 355.679c-25.449 0-46.15-20.699-46.15-46.133s20.701-46.135 46.15-46.135c38.275 0 46.133 11.295 46.133 28.276-.001 27.949-22.368 63.992-46.133 63.992zm-250.019 0c-23.767 0-46.134-36.043-46.134-63.992 0-16.98 7.843-28.276 46.134-28.276 25.448 0 46.149 20.701 46.149 46.135-.015 25.434-20.701 46.133-46.149 46.133z"/><path fill="#6161C6" d="M545.955 270.853c38.691 0 38.691 11.548 38.691 20.835 0 23.648-19.494 56.552-38.691 56.552-21.342 0-38.693-17.354-38.693-38.693-.001-21.342 17.351-38.694 38.693-38.694m-250.019 0c21.341 0 38.693 17.353 38.693 38.694 0 21.34-17.353 38.693-38.693 38.693-19.198 0-38.693-32.904-38.693-56.552 0-9.287 0-20.835 38.693-20.835m250.019-14.882c-29.586 0-53.576 23.99-53.576 53.576 0 29.584 23.99 53.574 53.576 53.574 29.584 0 53.574-41.848 53.574-71.433s-23.99-35.717-53.574-35.717zm-250.019 0c-29.585 0-53.575 6.131-53.575 35.717s23.99 71.433 53.575 71.433 53.575-23.99 53.575-53.574c0-29.587-23.99-53.576-53.575-53.576z"/><path fill="#FFF" d="M420.945 513.429c-15.552 0-30.226-7.1-40.256-19.48l-1.399-1.711-2.098-.686c-58.382-18.988-97.626-72.996-97.626-134.385v-89.544c0-35.002 28.469-63.486 63.486-63.486h155.801c35.016 0 63.486 28.484 63.486 63.486v89.544c0 61.389-39.244 115.396-97.641 134.4l-2.1.684-1.398 1.713c-10.031 12.366-24.704 19.465-40.255 19.465z"/><path fill="#6161C6" d="M498.754 211.534c30.91-.018 56.059 25.104 56.076 56.014l.051 89.544c.033 58.16-37.112 109.346-92.418 127.369l-4.183 1.355-2.766 3.426c-8.625 10.63-21.183 16.738-34.487 16.746-13.305.008-25.868-6.087-34.506-16.707l-2.77-3.422-4.182-1.352c-55.327-17.961-92.531-69.104-92.564-127.264l-.051-89.545c-.018-30.895 25.104-56.06 56.014-56.077l155.786-.087m-.008-14.883l-155.785.088c-39.169.022-70.909 31.799-70.887 70.968l.051 89.544c.038 66.107 43.212 122.054 102.855 141.411 10.917 13.446 27.381 22.219 46.058 22.208 18.678-.011 35.132-8.801 46.032-22.261 59.622-19.424 102.732-75.419 102.695-141.526l-.051-89.545c-.023-39.169-31.798-70.909-70.968-70.887z"/><path fill="none" stroke="#4788C7" stroke-miterlimit="10" d="M380.555 321.199s16.37-13.469 40.39-13.469 40.391 13.469 40.391 13.469"/><path fill="#6161C6" d="M543.722 282.758h-89.293c-8.215 0-14.883 6.667-14.883 14.882v29.764c0 24.66 19.988 44.646 44.646 44.646h14.883c24.66 0 44.646-19.986 44.646-44.646v-44.646zm-156.262 0h-89.292v44.646c0 24.66 19.986 44.646 44.646 44.646h14.882c24.66 0 44.646-19.986 44.646-44.646V297.64c0-8.215-6.667-14.882-14.882-14.882z"/><path fill="#C6D0F4" d="M420.945 305.14c-164.729 0-275.392-42.354-275.392-81.91s110.663-81.911 275.392-81.911c164.729 0 275.391 42.354 275.391 81.911-.001 39.557-110.663 81.91-275.391 81.91z"/><path fill="#6161C6" d="M420.945 148.686c166.053 0 268.01 43.411 268.01 74.544s-101.957 74.544-268.01 74.544-268.01-43.411-268.01-74.544 101.957-74.544 268.01-74.544m0-14.748c-156.157 0-282.758 39.973-282.758 89.292s126.602 89.293 282.758 89.293c156.156 0 282.758-39.974 282.758-89.293s-126.602-89.292-282.758-89.292z"/><path fill="#C6D0F4" d="M420.945 245.568c-38.44 0-154.966 0-156.261-45.598 14.927-66.865 39.884-177.662 86.688-177.662 13.021 0 22.353 3.393 32.249 6.995 10.67 3.884 21.698 7.887 37.324 7.887 15.863 0 27.443-4.107 38.619-8.081 9.867-3.498 19.182-6.801 30.955-6.801 41.4 0 61.893 80.467 81.701 158.3l4.986 19.466c-1.339 45.494-105.855 45.494-156.261 45.494z"/><path fill="#6161C6" d="M490.519 29.734c35.643 0 56.297 81.137 74.514 152.719a4715.838 4715.838 0 0 0 4.703 18.379c-2.992 37.324-108.654 37.324-148.791 37.324-119.83 0-147.436-20.091-148.805-37.562 13.587-60.763 38.589-170.86 79.232-170.86 11.712 0 20.046 3.036 29.719 6.548 10.745 3.914 22.918 8.334 39.854 8.334 17.145 0 29.869-4.524 41.104-8.498 9.644-3.437 17.978-6.384 28.47-6.384m0-14.852c-26.596 0-40.926 14.882-69.574 14.882-28.648 0-40.925-14.882-69.573-14.882-51.149 0-75.72 101.882-94.129 184.314 0 50.36 102.671 53.798 163.702 53.798s163.701-1.146 163.701-53.798c-22.516-87.015-42.979-184.314-94.127-184.314z"/></svg>